<svg width="100" height="100" viewBox="0 0 100 100" fill="none" xmlns="http://www.w3.org/2000/svg">
<rect width="100" height="100" fill="#F3F4F6"/>
<path d="M35 35H65V65H35V35Z" fill="#9CA3AF"/>
<svg width="40" height="40" viewBox="0 0 40 40" fill="none" xmlns="http://www.w3.org/2000/svg" x="30" y="30">
<path d="M20 10C15.5817 10 12 13.5817 12 18C12 22.4183 15.5817 26 20 26C24.4183 26 28 22.4183 28 18C28 13.5817 24.4183 10 20 10Z" fill="#9CA3AF"/>
<path d="M20 30C15.5817 30 12 33.5817 12 38C12 42.4183 15.5817 46 20 46C24.4183 46 28 42.4183 28 38C28 33.5817 24.4183 30 20 30Z" fill="#9CA3AF"/>
</svg>
</svg>

